<svg width="15" height="15" viewBox="0 0 15 15" fill="none" xmlns="http://www.w3.org/2000/svg">
<path d="M0 1.6625C0 0.744167 0.744167 0 1.6625 0H13.3375C14.2558 0 15 0.744167 15 1.6625V13.3375C15 13.7784 14.8248 14.2013 14.5131 14.5131C14.2013 14.8248 13.7784 15 13.3375 15H1.6625C1.22158 15 0.798714 14.8248 0.486935 14.5131C0.175156 14.2013 0 13.7784 0 13.3375V1.6625ZM2.7975 12.5H12.3725C11.8355 11.7278 11.1196 11.0971 10.2859 10.6618C9.45221 10.2264 8.52552 9.99938 7.585 10C6.64448 9.99938 5.71779 10.2264 4.88409 10.6618C4.0504 11.0971 3.33448 11.7278 2.7975 12.5ZM7.5 8.33333C7.88302 8.33333 8.26229 8.25789 8.61616 8.11132C8.97003 7.96474 9.29156 7.7499 9.56239 7.47906C9.83323 7.20822 10.0481 6.88669 10.1946 6.53283C10.3412 6.17896 10.4167 5.79969 10.4167 5.41667C10.4167 5.03364 10.3412 4.65437 10.1946 4.30051C10.0481 3.94664 9.83323 3.62511 9.56239 3.35427C9.29156 3.08343 8.97003 2.86859 8.61616 2.72202C8.26229 2.57544 7.88302 2.5 7.5 2.5C6.72645 2.5 5.98459 2.80729 5.43761 3.35427C4.89062 3.90125 4.58333 4.64312 4.58333 5.41667C4.58333 6.19021 4.89062 6.93208 5.43761 7.47906C5.98459 8.02604 6.72645 8.33333 7.5 8.33333Z" fill="black" fill-opacity="0.34"/>
</svg>
