<svg width="15" height="17" viewBox="0 0 15 17" fill="none" xmlns="http://www.w3.org/2000/svg">
<path d="M12.8033 12.0208L7.5 17L2.19667 12.0208C1.14779 11.036 0.433489 9.78129 0.144107 8.41535C-0.145275 7.04941 0.0032557 5.63358 0.570915 4.3469C1.13858 3.06021 2.09987 1.96046 3.33323 1.18672C4.5666 0.412982 6.01664 0 7.5 0C8.98336 0 10.4334 0.412982 11.6668 1.18672C12.9001 1.96046 13.8614 3.06021 14.4291 4.3469C14.9967 5.63358 15.1453 7.04941 14.8559 8.41535C14.5665 9.78129 13.8522 11.036 12.8033 12.0208ZM7.5 8.60638C7.94203 8.60638 8.36595 8.44151 8.67851 8.14806C8.99107 7.8546 9.16667 7.45658 9.16667 7.04157C9.16667 6.62656 8.99107 6.22854 8.67851 5.93508C8.36595 5.64163 7.94203 5.47676 7.5 5.47676C7.05797 5.47676 6.63405 5.64163 6.32149 5.93508C6.00893 6.22854 5.83333 6.62656 5.83333 7.04157C5.83333 7.45658 6.00893 7.8546 6.32149 8.14806C6.63405 8.44151 7.05797 8.60638 7.5 8.60638Z" fill="black" fill-opacity="0.34"/>
</svg>
