<svg xmlns="http://www.w3.org/2000/svg" width="30" height="30" viewBox="0 0 30 30" fill="none">
  <path d="M22.3652 13.2363C22.3652 7.51758 19.2891 5.57227 16.4121 5.13867C16.4121 5.10937 16.418 5.08008 16.418 5.04492C16.418 4.32422 15.7793 3.75 15 3.75C14.2207 3.75 13.6055 4.32422 13.6055 5.04492C13.6055 5.08008 13.6055 5.10937 13.6113 5.13867C10.7285 5.57812 7.63477 7.5293 7.63477 13.248C7.63477 19.916 5.97656 20.6309 3.75 22.5059H26.25C24.0352 20.625 22.3652 19.9043 22.3652 13.2363Z" fill="black"/>
  <path d="M15.0117 26.25C16.582 26.25 17.8711 25.084 18.041 23.7305H11.9824C12.1465 25.084 13.4414 26.25 15.0117 26.25Z" fill="black"/>
</svg>