<svg width="28" height="23" viewBox="0 0 28 23" fill="none" xmlns="http://www.w3.org/2000/svg">
<g opacity="0.2">
<path d="M26.6667 19.6667C26.6667 20.2855 26.4208 20.879 25.9832 21.3166C25.5457 21.7542 24.9522 22 24.3333 22H3.33333C2.71449 22 2.121 21.7542 1.68342 21.3166C1.24583 20.879 1 20.2855 1 19.6667V6.83333C1 6.21449 1.24583 5.621 1.68342 5.18342C2.121 4.74583 2.71449 4.5 3.33333 4.5H8L10.3333 1H17.3333L19.6667 4.5H24.3333C24.9522 4.5 25.5457 4.74583 25.9832 5.18342C26.4208 5.621 26.6667 6.21449 26.6667 6.83333V19.6667Z" stroke="black" stroke-width="2" stroke-linecap="round" stroke-linejoin="round"/>
<path d="M13.8327 17.3333C16.41 17.3333 18.4993 15.244 18.4993 12.6667C18.4993 10.0893 16.41 8 13.8327 8C11.2554 8 9.16602 10.0893 9.16602 12.6667C9.16602 15.244 11.2554 17.3333 13.8327 17.3333Z" stroke="black" stroke-width="2" stroke-linecap="round" stroke-linejoin="round"/>
</g>
</svg>
