<svg width="18" height="16" viewBox="0 0 18 16" fill="none" xmlns="http://www.w3.org/2000/svg">
<path d="M9 14.3782H10.6364V3.83644L15.8678 6.05832C16.0151 6.12089 16.1406 6.22494 16.2287 6.35756C16.3169 6.49019 16.3638 6.64554 16.3636 6.80435V14.3782H18V16H0V14.3782H1.63636V3.55262C1.63634 3.39573 1.68225 3.24219 1.76851 3.11064C1.85478 2.97908 1.97769 2.87516 2.12236 2.81146L8.42482 0.0349208C8.48717 0.00746672 8.55546 -0.00409561 8.62347 0.00128633C8.69148 0.00666828 8.75705 0.0288236 8.81422 0.0657355C8.87139 0.102647 8.91833 0.153144 8.95078 0.212628C8.98322 0.272112 9.00014 0.338694 9 0.406315V14.3782Z" fill="black" fill-opacity="0.34"/>
</svg>
