<svg xmlns="http://www.w3.org/2000/svg" width="58" height="58" viewBox="0 0 58 58" fill="none">
  <path d="M24.9655 47.1757C24.9655 48.166 25.3588 49.1157 26.0591 49.8159C26.7593 50.5161 27.709 50.9095 28.6992 50.9095C29.6895 50.9095 30.6392 50.5161 31.3394 49.8159C32.0396 49.1157 32.433 48.166 32.433 47.1757C32.433 46.6854 32.3364 46.1999 32.1488 45.7469C31.9611 45.2939 31.6861 44.8823 31.3394 44.5356C30.9927 44.1889 30.5811 43.9138 30.1281 43.7262C29.6751 43.5386 29.1895 43.442 28.6992 43.442C28.2089 43.442 27.7234 43.5386 27.2704 43.7262C26.8174 43.9138 26.4058 44.1889 26.0591 44.5356C25.7123 44.8823 25.4373 45.2939 25.2497 45.7469C25.062 46.1999 24.9655 46.6854 24.9655 47.1757ZM35.2786 33.0817C40.5312 30.189 43.1992 25.9949 43.1992 20.619C43.1992 11.3861 35.9166 7.25 28.6992 7.25C21.6703 7.25 14.1992 12.3576 14.1992 21.8261C14.1992 22.7875 14.5811 23.7096 15.261 24.3894C15.9408 25.0692 16.8628 25.4511 17.8242 25.4511C18.7856 25.4511 19.7077 25.0692 20.3875 24.3894C21.0673 23.7096 21.4492 22.7875 21.4492 21.8261C21.4492 16.791 25.2083 14.5 28.6992 14.5C31.4071 14.5 35.9492 15.2939 35.9492 20.619C35.9492 22.5076 35.4526 24.7116 31.7841 26.7344C29.2901 28.101 25.0742 31.6499 25.0742 36.25C25.0742 37.2114 25.4561 38.1334 26.136 38.8133C26.8158 39.4931 27.7378 39.875 28.6992 39.875C29.6606 39.875 30.5827 39.4931 31.2625 38.8133C31.9423 38.1334 32.3242 37.2114 32.3242 36.25C32.3242 35.5757 33.7561 33.9191 35.2786 33.0817Z" fill="white"/>
</svg>