<svg width="16" height="16" viewBox="0 0 16 16" fill="none" xmlns="http://www.w3.org/2000/svg">
<path d="M8 16C3.5816 16 0 12.4184 0 8C0 3.5816 3.5816 0 8 0C12.4184 0 16 3.5816 16 8C16 12.4184 12.4184 16 8 16ZM13.084 11.1616V11.0776C13.084 10.34 13.084 10.0032 12.5624 9.7048C12.3947 9.60976 12.2225 9.52299 12.0464 9.4448C11.7528 9.3112 11.5584 9.224 11.296 8.84C11.2647 8.7944 11.2337 8.74853 11.2032 8.7024C10.9272 8.2824 10.728 7.98 9.9696 8.1C8.4776 8.3368 8.3672 8.5992 8.3016 9.0424L8.2912 9.1152C8.1944 9.7632 8.1768 9.9808 8.4472 10.2648C9.4592 11.3264 10.0656 12.092 10.2496 12.54C10.3392 12.7584 10.5696 13.42 10.4112 14.0744C11.3823 13.6876 12.2466 13.074 12.932 12.2848C13.02 11.9856 13.084 11.6128 13.084 11.1616ZM8 1.4664C6.1464 1.4664 4.472 2.2392 3.2832 3.4792C3.4248 3.5776 3.548 3.716 3.6328 3.9064C3.796 4.272 3.796 4.6488 3.796 4.9824C3.796 5.2448 3.796 5.4944 3.88 5.6744C3.9952 5.9208 4.4928 6.0264 4.932 6.1176C5.0896 6.1512 5.2512 6.1848 5.3984 6.2256C5.8032 6.3376 6.1168 6.7016 6.3672 6.9936C6.4712 7.1144 6.6256 7.2928 6.7032 7.3376C6.7432 7.3088 6.872 7.1688 6.9352 6.9392C6.9848 6.7632 6.9704 6.608 6.8992 6.5232C6.4512 5.9952 6.476 4.9792 6.6144 4.604C6.832 4.0128 7.512 4.0568 8.0096 4.0888C8.1952 4.1008 8.3696 4.1128 8.5008 4.096C8.9984 4.0336 9.152 3.276 9.26 3.128C9.4936 2.808 10.2088 2.3256 10.652 2.028C9.8172 1.65679 8.91361 1.46545 8 1.4664Z" fill="black" fill-opacity="0.34"/>
</svg>
