<svg xmlns="http://www.w3.org/2000/svg" width="14" height="14" viewBox="0 0 14 14" fill="none">
  <path d="M11.6663 1.66732H10.9997V1.00065C10.9997 0.600651 10.733 0.333984 10.333 0.333984C9.93301 0.333984 9.66634 0.600651 9.66634 1.00065V1.66732H4.33301V1.00065C4.33301 0.600651 4.06634 0.333984 3.66634 0.333984C3.26634 0.333984 2.99967 0.600651 2.99967 1.00065V1.66732H2.33301C1.19967 1.66732 0.333008 2.53398 0.333008 3.66732V4.33398H13.6663V3.66732C13.6663 2.53398 12.7997 1.66732 11.6663 1.66732ZM0.333008 11.6673C0.333008 12.8007 1.19967 13.6673 2.33301 13.6673H11.6663C12.7997 13.6673 13.6663 12.8007 13.6663 11.6673V5.66732H0.333008V11.6673ZM10.333 7.00065C10.733 7.00065 10.9997 7.26732 10.9997 7.66732C10.9997 8.06732 10.733 8.33398 10.333 8.33398C9.93301 8.33398 9.66634 8.06732 9.66634 7.66732C9.66634 7.26732 9.93301 7.00065 10.333 7.00065ZM10.333 9.66732C10.733 9.66732 10.9997 9.93398 10.9997 10.334C10.9997 10.734 10.733 11.0007 10.333 11.0007C9.93301 11.0007 9.66634 10.734 9.66634 10.334C9.66634 9.93398 9.93301 9.66732 10.333 9.66732ZM6.99967 7.00065C7.39967 7.00065 7.66634 7.26732 7.66634 7.66732C7.66634 8.06732 7.39967 8.33398 6.99967 8.33398C6.59967 8.33398 6.33301 8.06732 6.33301 7.66732C6.33301 7.26732 6.59967 7.00065 6.99967 7.00065ZM6.99967 9.66732C7.39967 9.66732 7.66634 9.93398 7.66634 10.334C7.66634 10.734 7.39967 11.0007 6.99967 11.0007C6.59967 11.0007 6.33301 10.734 6.33301 10.334C6.33301 9.93398 6.59967 9.66732 6.99967 9.66732ZM3.66634 7.00065C4.06634 7.00065 4.33301 7.26732 4.33301 7.66732C4.33301 8.06732 4.06634 8.33398 3.66634 8.33398C3.26634 8.33398 2.99967 8.06732 2.99967 7.66732C2.99967 7.26732 3.26634 7.00065 3.66634 7.00065ZM3.66634 9.66732C4.06634 9.66732 4.33301 9.93398 4.33301 10.334C4.33301 10.734 4.06634 11.0007 3.66634 11.0007C3.26634 11.0007 2.99967 10.734 2.99967 10.334C2.99967 9.93398 3.26634 9.66732 3.66634 9.66732Z" fill="#A5A6A8"/>
</svg>