<svg width="114" height="80" viewBox="0 0 114 80" fill="none" xmlns="http://www.w3.org/2000/svg">
<g opacity="0.3">
<path fill-rule="evenodd" clip-rule="evenodd" d="M5.36262 6.77754e-06H108.443C109.912 6.77754e-06 111.247 0.591861 112.22 1.54762C113.204 2.51483 113.812 3.84849 113.812 5.31706V73.8585C113.812 75.3275 113.204 76.6604 112.22 77.6268C111.247 78.5824 109.912 79.1739 108.443 79.1739H5.36263C3.8963 79.1739 2.56177 78.5821 1.59061 77.6261C0.608239 76.659 0 75.3264 0 73.8585V5.31706C0 3.84954 0.608323 2.51631 1.59087 1.5484C2.56159 0.592209 3.89586 0 5.36263 0L5.36262 6.77754e-06Z" fill="#545454"/>
<path fill-rule="evenodd" clip-rule="evenodd" d="M5.23299 2.82812C4.59436 2.82812 3.99221 3.07849 3.53783 3.52647C3.08809 3.96999 2.82812 4.55794 2.82812 5.19267V73.9839C2.82812 74.6181 3.08739 75.2052 3.53695 75.6483C3.99152 76.0964 4.59418 76.3468 5.23299 76.3468H108.574C109.215 76.3468 109.82 76.096 110.277 75.6466C110.727 75.2042 110.985 74.6177 110.985 73.9839V5.19267C110.985 4.55838 110.727 3.97104 110.277 3.52823C109.82 3.07875 109.215 2.82812 108.574 2.82812H5.233H5.23299Z" fill="#F8F7FF"/>
<path fill-rule="evenodd" clip-rule="evenodd" d="M11.9121 10.957C10.6043 10.957 9.54395 12.0648 9.54395 13.4312C9.54395 14.7976 10.6043 15.9054 11.9121 15.9054H101.902C103.21 15.9054 104.27 14.7976 104.27 13.4312C104.27 12.0648 103.21 10.957 101.902 10.957H11.9121Z" fill="#AAAAAA"/>
<path fill-rule="evenodd" clip-rule="evenodd" d="M16.5179 60.793C15.2029 60.793 14.1367 61.9008 14.1367 63.2672C14.1367 64.6336 15.2029 65.7413 16.5179 65.7413H56.9977C58.3128 65.7413 59.3789 64.6336 59.3789 63.2672C59.3789 61.9008 58.3128 60.793 56.9977 60.793H16.5179Z" fill="#AAAAAA"/>
<path fill-rule="evenodd" clip-rule="evenodd" d="M16.5179 44.5352C15.2029 44.5352 14.1367 45.5638 14.1367 46.8326C14.1367 48.1014 15.2029 49.1301 16.5179 49.1301H56.9977C58.3128 49.1301 59.3789 48.1014 59.3789 46.8326C59.3789 45.5638 58.3128 44.5352 56.9977 44.5352H16.5179Z" fill="#AAAAAA"/>
<path fill-rule="evenodd" clip-rule="evenodd" d="M16.5179 27.5703C15.2029 27.5703 14.1367 28.6781 14.1367 30.0445C14.1367 31.4109 15.2029 32.5187 16.5179 32.5187H56.9977C58.3128 32.5187 59.3789 31.4109 59.3789 30.0445C59.3789 28.6781 58.3128 27.5703 56.9977 27.5703H16.5179Z" fill="#AAAAAA"/>
<path fill-rule="evenodd" clip-rule="evenodd" d="M70.7623 68.2187H69.516H67.1562V65.8697V64.6291V59.5032C67.1562 57.9265 67.4205 56.3813 67.912 54.9147C68.4146 53.4147 69.1491 52.0234 70.076 50.7896C71.0031 49.5556 72.141 48.4584 73.45 47.5471C74.7255 46.6591 76.1447 45.963 77.669 45.5058L78.317 45.3115L79.544 44.9436L80.52 45.7795L81.0355 46.2208C81.3729 46.5098 81.7358 46.7684 82.1194 46.9944C82.5134 47.2265 82.9094 47.4165 83.3027 47.5619C83.6796 47.7012 84.0962 47.8118 84.5484 47.8919C84.9757 47.9675 85.4193 48.0062 85.8752 48.0062C86.3253 48.0062 86.7655 47.9675 87.1912 47.8919C87.6223 47.8155 88.0421 47.7017 88.4462 47.5529C88.8702 47.3968 89.265 47.2121 89.6258 47.0009C89.992 46.7867 90.3491 46.5324 90.6927 46.2401L91.2409 45.7737L92.2788 44.8906L93.5637 45.3517L94.2423 45.5951C95.8478 46.1712 97.2456 46.8803 98.4496 47.7305C99.6987 48.6127 100.741 49.6444 101.592 50.834C102.432 52.0092 103.067 53.3204 103.511 54.7762C103.939 56.1785 104.184 57.6999 104.26 59.3502L104.269 59.4511V59.5044H104.26L104.263 64.6291L104.264 65.8696L104.265 68.2187H101.913H100.671H70.7623H70.7623Z" fill="#727272"/>
<path fill-rule="evenodd" clip-rule="evenodd" d="M93.7829 41.1178C91.6719 43.2288 88.7557 44.5351 85.5359 44.5351C82.3154 44.5351 79.3994 43.2293 77.2886 41.1184C75.1778 39.0075 73.8721 36.0914 73.8721 32.8709C73.8721 29.6503 75.1777 26.7342 77.2885 24.6234C79.3992 22.5127 82.3153 21.207 85.5359 21.207C88.756 21.207 91.6721 22.513 93.7831 24.6239C95.8941 26.7349 97.2001 29.651 97.2001 32.8709C97.2001 36.0907 95.8939 39.0069 93.7829 41.1178L93.7829 41.1178Z" fill="#6A6A6A"/>
</g>
</svg>
