<svg xmlns="http://www.w3.org/2000/svg" width="25" height="16" viewBox="0 0 25 16" fill="none">
  <rect width="25" height="16" rx="1" fill="black"/>
  <path d="M21.8518 7.49961C21.8518 10.5871 19.358 13.1105 16.2408 13.1105C13.1533 13.1105 10.6299 10.5871 10.6299 7.49961C10.6299 4.41211 13.1236 1.88867 16.2111 1.88867C19.358 1.88867 21.8518 4.41211 21.8518 7.49961Z" fill="#FFB600"/>
  <path d="M16.2408 1.88867C19.3283 1.88867 21.8518 4.41211 21.8518 7.49961C21.8518 10.5871 19.358 13.1105 16.2408 13.1105C13.1533 13.1105 10.6299 10.5871 10.6299 7.49961" fill="#F7981D"/>
  <path d="M16.2407 1.88867C19.3282 1.88867 21.8517 4.41211 21.8517 7.49961C21.8517 10.5871 19.3579 13.1105 16.2407 13.1105" fill="#FF8500"/>
  <path d="M8.7 1.88867C5.64219 1.91836 3.14844 4.41211 3.14844 7.49961C3.14844 10.5871 5.64219 13.1105 8.75938 13.1105C10.2141 13.1105 11.5203 12.5465 12.5297 11.6559C12.7375 11.4777 12.9156 11.2699 13.0938 11.0621H11.9359C11.7875 10.884 11.6391 10.6762 11.5203 10.498H13.5094C13.6281 10.3199 13.7469 10.1121 13.8359 9.9043H11.1938C11.1047 9.72617 11.0156 9.51836 10.9562 9.31055H14.0437C14.2219 8.74648 14.3406 8.15273 14.3406 7.5293C14.3406 7.11367 14.2812 6.72773 14.2219 6.3418H10.7781C10.8078 6.13398 10.8672 5.95586 10.9266 5.74805H14.0141C13.9547 5.54023 13.8656 5.33242 13.7766 5.1543H11.1641C11.2531 4.94648 11.3719 4.76836 11.4906 4.56055H13.4797C13.3609 4.35273 13.2125 4.14492 13.0344 3.9668H11.9359C12.1141 3.75898 12.2922 3.58086 12.5 3.40273C11.5203 2.48242 10.1844 1.94805 8.72969 1.94805C8.72969 1.88867 8.72969 1.88867 8.7 1.88867Z" fill="#FF5050"/>
  <path d="M3.14844 7.4998C3.14844 10.5873 5.64219 13.1107 8.75938 13.1107C10.2141 13.1107 11.5203 12.5467 12.5297 11.6561C12.7375 11.4779 12.9156 11.2701 13.0938 11.0623H11.9359C11.7875 10.8842 11.6391 10.6764 11.5203 10.4982H13.5094C13.6281 10.3201 13.7469 10.1123 13.8359 9.90449H11.1938C11.1047 9.72637 11.0156 9.51855 10.9562 9.31074H14.0437C14.2219 8.74668 14.3406 8.15293 14.3406 7.52949C14.3406 7.11387 14.2812 6.72793 14.2219 6.34199H10.7781C10.8078 6.13418 10.8672 5.95605 10.9266 5.74824H14.0141C13.9547 5.54043 13.8656 5.33262 13.7766 5.15449H11.1641C11.2531 4.94668 11.3719 4.76855 11.4906 4.56074H13.4797C13.3609 4.35293 13.2125 4.14512 13.0344 3.96699H11.9359C12.1141 3.75918 12.2922 3.58105 12.5 3.40293C11.5203 2.48262 10.1844 1.94824 8.72969 1.94824H8.7" fill="#E52836"/>
  <path d="M8.75957 13.1107C10.2143 13.1107 11.5205 12.5467 12.5299 11.6561C12.7377 11.4779 12.9158 11.2701 13.0939 11.0623H11.9361C11.7877 10.8842 11.6393 10.6764 11.5205 10.4982H13.5096C13.6283 10.3201 13.7471 10.1123 13.8361 9.90449H11.1939C11.1049 9.72637 11.0158 9.51855 10.9564 9.31074H14.0439C14.2221 8.74668 14.3408 8.15293 14.3408 7.52949C14.3408 7.11387 14.2814 6.72793 14.2221 6.34199H10.7783C10.808 6.13418 10.8674 5.95605 10.9268 5.74824H14.0143C13.9549 5.54043 13.8658 5.33262 13.7768 5.15449H11.1643C11.2533 4.94668 11.3721 4.76855 11.4908 4.56074H13.4799C13.3611 4.35293 13.2127 4.14512 13.0346 3.96699H11.9361C12.1143 3.75918 12.2924 3.58105 12.5002 3.40293C11.5205 2.48262 10.1846 1.94824 8.72988 1.94824H8.7002" fill="#CB2026"/>
  <path d="M10.7482 8.92461L10.8373 8.41992C10.8076 8.41992 10.7482 8.44961 10.6889 8.44961C10.4811 8.44961 10.4514 8.33086 10.4811 8.27148L10.6592 7.23242H10.9857L11.0748 6.66836H10.7779L10.8373 6.31211H10.2436C10.2436 6.31211 9.88731 8.27148 9.88731 8.50898C9.88731 8.86523 10.0951 9.01367 10.3623 9.01367C10.5404 9.01367 10.6889 8.9543 10.7482 8.92461ZM10.9561 7.97461C10.9561 8.80586 11.5201 9.01367 11.9951 9.01367C12.4404 9.01367 12.6186 8.92461 12.6186 8.92461L12.7373 8.36055C12.7373 8.36055 12.4107 8.50898 12.1139 8.50898C11.4607 8.50898 11.5795 8.03398 11.5795 8.03398H12.7967C12.7967 8.03398 12.8857 7.64805 12.8857 7.49961C12.8857 7.11367 12.6779 6.63867 12.0248 6.63867C11.4014 6.5793 10.9561 7.23242 10.9561 7.97461ZM11.9951 7.11367C12.3217 7.11367 12.2623 7.49961 12.2623 7.5293H11.6092C11.6092 7.49961 11.6686 7.11367 11.9951 7.11367ZM15.7654 8.92461L15.8842 8.27148C15.8842 8.27148 15.5873 8.41992 15.3795 8.41992C14.9639 8.41992 14.7857 8.09336 14.7857 7.73711C14.7857 7.02461 15.142 6.63867 15.5576 6.63867C15.8545 6.63867 16.092 6.8168 16.092 6.8168L16.1811 6.19336C16.1811 6.19336 15.8248 6.04492 15.4982 6.04492C14.8154 6.04492 14.1326 6.63867 14.1326 7.7668C14.1326 8.50898 14.4889 9.01367 15.2014 9.01367C15.4389 9.01367 15.7654 8.92461 15.7654 8.92461ZM7.48262 6.5793C7.06699 6.5793 6.77012 6.69805 6.77012 6.69805L6.68105 7.20273C6.68105 7.20273 6.94824 7.08398 7.33418 7.08398C7.54199 7.08398 7.72012 7.11367 7.72012 7.2918C7.72012 7.41055 7.69043 7.44023 7.69043 7.44023H7.42324C6.91855 7.44023 6.35449 7.64805 6.35449 8.33086C6.35449 8.86523 6.71074 8.98398 6.91855 8.98398C7.33418 8.98398 7.5123 8.7168 7.54199 8.7168L7.5123 8.9543H8.04668L8.28418 7.32148C8.28418 6.60898 7.69043 6.5793 7.48262 6.5793ZM7.60137 7.91523C7.60137 8.0043 7.54199 8.4793 7.18574 8.4793C7.00762 8.4793 6.94824 8.33086 6.94824 8.2418C6.94824 8.09336 7.0373 7.88555 7.48262 7.88555C7.57168 7.91523 7.60137 7.91523 7.60137 7.91523ZM8.84824 8.98398C8.99668 8.98398 9.73887 9.01367 9.73887 8.21211C9.73887 7.46992 9.02637 7.61836 9.02637 7.32148C9.02637 7.17305 9.14512 7.11367 9.35293 7.11367C9.44199 7.11367 9.76855 7.14336 9.76855 7.14336L9.85762 6.60898C9.85762 6.60898 9.64981 6.54961 9.29356 6.54961C8.84824 6.54961 8.40293 6.72773 8.40293 7.32148C8.40293 8.0043 9.14512 7.94492 9.14512 8.21211C9.14512 8.39023 8.9373 8.41992 8.78887 8.41992C8.52168 8.41992 8.25449 8.33086 8.25449 8.33086L8.16543 8.86523C8.19512 8.92461 8.34355 8.98398 8.84824 8.98398ZM20.6936 6.1043L20.5748 6.90586C20.5748 6.90586 20.3373 6.60898 20.0107 6.60898C19.4764 6.60898 19.0014 7.26211 19.0014 8.03398C19.0014 8.50898 19.2389 9.01367 19.7436 9.01367C20.0998 9.01367 20.3076 8.77617 20.3076 8.77617L20.2779 8.98398H20.8717L21.317 6.13398L20.6936 6.1043ZM20.4264 7.67773C20.4264 8.0043 20.2779 8.41992 19.9514 8.41992C19.7436 8.41992 19.6248 8.2418 19.6248 7.94492C19.6248 7.46992 19.8326 7.17305 20.0998 7.17305C20.3076 7.17305 20.4264 7.32148 20.4264 7.67773ZM4.24668 8.9543L4.60293 6.8168L4.6623 8.9543H5.07793L5.8498 6.8168L5.52324 8.9543H6.14668L6.62168 6.1043H5.64199L5.04824 7.85586L5.01855 6.1043H4.15762L3.68262 8.9543H4.24668ZM13.4498 8.9543C13.6279 7.97461 13.6576 7.17305 14.0732 7.32148C14.1326 6.93555 14.2217 6.78711 14.2811 6.63867H14.1623C13.8951 6.63867 13.6873 6.99492 13.6873 6.99492L13.7467 6.66836H13.1826L12.7967 8.98398H13.4498V8.9543ZM17.1311 6.5793C16.7154 6.5793 16.4186 6.69805 16.4186 6.69805L16.3295 7.20273C16.3295 7.20273 16.5967 7.08398 16.9826 7.08398C17.1904 7.08398 17.3686 7.11367 17.3686 7.2918C17.3686 7.41055 17.3389 7.44023 17.3389 7.44023H17.0717C16.567 7.44023 16.0029 7.64805 16.0029 8.33086C16.0029 8.86523 16.3592 8.98398 16.567 8.98398C16.9826 8.98398 17.1607 8.7168 17.1904 8.7168L17.1607 8.9543H17.6951L17.9326 7.32148C17.9623 6.60898 17.3389 6.5793 17.1311 6.5793ZM17.2795 7.91523C17.2795 8.0043 17.2201 8.4793 16.8639 8.4793C16.6857 8.4793 16.6264 8.33086 16.6264 8.2418C16.6264 8.09336 16.7154 7.88555 17.1607 7.88555C17.2498 7.91523 17.2498 7.91523 17.2795 7.91523ZM18.4373 8.9543C18.6154 7.97461 18.6451 7.17305 19.0607 7.32148C19.1201 6.93555 19.2092 6.78711 19.2686 6.63867H19.1498C18.8826 6.63867 18.6748 6.99492 18.6748 6.99492L18.7342 6.66836H18.1701L17.7842 8.98398H18.4373V8.9543Z" fill="white"/>
  <path d="M9.82793 8.50898C9.82793 8.86523 10.0357 9.01367 10.3029 9.01367C10.5107 9.01367 10.6889 8.9543 10.7482 8.92461L10.8373 8.41992C10.8076 8.41992 10.7482 8.44961 10.6889 8.44961C10.4811 8.44961 10.4514 8.33086 10.4811 8.27148L10.6592 7.23242H10.9857L11.0748 6.66836H10.7779L10.8373 6.31211M11.2529 7.97461C11.2529 8.80586 11.5201 9.01367 11.9951 9.01367C12.4404 9.01367 12.6186 8.92461 12.6186 8.92461L12.7373 8.36055C12.7373 8.36055 12.4107 8.50898 12.1139 8.50898C11.4607 8.50898 11.5795 8.03398 11.5795 8.03398H12.7967C12.7967 8.03398 12.8857 7.64805 12.8857 7.49961C12.8857 7.11367 12.6779 6.63867 12.0248 6.63867C11.4014 6.5793 11.2529 7.23242 11.2529 7.97461ZM11.9951 7.11367C12.3217 7.11367 12.3811 7.49961 12.3811 7.5293H11.6092C11.6092 7.49961 11.6686 7.11367 11.9951 7.11367ZM15.7654 8.92461L15.8842 8.27148C15.8842 8.27148 15.5873 8.41992 15.3795 8.41992C14.9639 8.41992 14.7857 8.09336 14.7857 7.73711C14.7857 7.02461 15.142 6.63867 15.5576 6.63867C15.8545 6.63867 16.092 6.8168 16.092 6.8168L16.1811 6.19336C16.1811 6.19336 15.8248 6.04492 15.4982 6.04492C14.8154 6.04492 14.4295 6.63867 14.4295 7.7668C14.4295 8.50898 14.4889 9.01367 15.2014 9.01367C15.4389 9.01367 15.7654 8.92461 15.7654 8.92461ZM6.68105 7.23242C6.68105 7.23242 6.94824 7.11367 7.33418 7.11367C7.54199 7.11367 7.72012 7.14336 7.72012 7.32148C7.72012 7.44023 7.69043 7.46992 7.69043 7.46992H7.42324C6.91855 7.46992 6.35449 7.67773 6.35449 8.36055C6.35449 8.89492 6.71074 9.01367 6.91855 9.01367C7.33418 9.01367 7.5123 8.74648 7.54199 8.74648L7.5123 8.98398H8.04668L8.28418 7.35117C8.28418 6.66836 7.69043 6.63867 7.45293 6.63867M7.89824 7.91523C7.89824 8.0043 7.54199 8.4793 7.18574 8.4793C7.00762 8.4793 6.94824 8.33086 6.94824 8.2418C6.94824 8.09336 7.0373 7.88555 7.48262 7.88555C7.57168 7.91523 7.89824 7.91523 7.89824 7.91523ZM8.19512 8.92461C8.19512 8.92461 8.37324 8.98398 8.87793 8.98398C9.02637 8.98398 9.76855 9.01367 9.76855 8.21211C9.76855 7.46992 9.05605 7.61836 9.05605 7.32148C9.05605 7.17305 9.1748 7.11367 9.38262 7.11367C9.47168 7.11367 9.79824 7.14336 9.79824 7.14336L9.88731 6.60898C9.88731 6.60898 9.67949 6.54961 9.32324 6.54961C8.87793 6.54961 8.72949 6.72773 8.72949 7.32148C8.72949 8.0043 9.1748 7.94492 9.1748 8.21211C9.1748 8.39023 8.96699 8.41992 8.81855 8.41992M20.5748 6.90586C20.5748 6.90586 20.3373 6.60898 20.0107 6.60898C19.4764 6.60898 19.2982 7.26211 19.2982 8.03398C19.2982 8.50898 19.2389 9.01367 19.7436 9.01367C20.0998 9.01367 20.3076 8.77617 20.3076 8.77617L20.2779 8.98398H20.8717L21.317 6.13398M20.5451 7.67773C20.5451 8.0043 20.2779 8.41992 19.9514 8.41992C19.7436 8.41992 19.6248 8.2418 19.6248 7.94492C19.6248 7.46992 19.8326 7.17305 20.0998 7.17305C20.3076 7.17305 20.5451 7.32148 20.5451 7.67773ZM4.24668 8.9543L4.60293 6.8168L4.6623 8.9543H5.07793L5.8498 6.8168L5.52324 8.9543H6.14668L6.62168 6.1043H5.87949L5.04824 7.85586L5.01855 6.1043H4.69199L3.68262 8.9543H4.24668ZM12.8264 8.9543H13.4498C13.6279 7.97461 13.6576 7.17305 14.0732 7.32148C14.1326 6.93555 14.2217 6.78711 14.2811 6.63867H14.1623C13.8951 6.63867 13.6873 6.99492 13.6873 6.99492L13.7467 6.66836M16.3295 7.23242C16.3295 7.23242 16.5967 7.11367 16.9826 7.11367C17.1904 7.11367 17.3686 7.14336 17.3686 7.32148C17.3686 7.44023 17.3389 7.46992 17.3389 7.46992H17.0717C16.567 7.46992 16.0029 7.67773 16.0029 8.36055C16.0029 8.89492 16.3592 9.01367 16.567 9.01367C16.9826 9.01367 17.1607 8.74648 17.1904 8.74648L17.1607 8.98398H17.6951L17.9326 7.35117C17.9326 6.66836 17.3389 6.63867 17.1014 6.63867M17.5467 7.91523C17.5467 8.0043 17.1904 8.4793 16.8342 8.4793C16.6561 8.4793 16.5967 8.33086 16.5967 8.2418C16.5967 8.09336 16.6857 7.88555 17.1311 7.88555C17.2498 7.91523 17.5467 7.91523 17.5467 7.91523ZM17.8139 8.9543H18.4373C18.6154 7.97461 18.6451 7.17305 19.0607 7.32148C19.1201 6.93555 19.2092 6.78711 19.2686 6.63867H19.1498C18.8826 6.63867 18.6748 6.99492 18.6748 6.99492L18.7342 6.66836" fill="#DCE5E5"/>
</svg>