<svg width="14" height="13" viewBox="0 0 14 13" fill="none" xmlns="http://www.w3.org/2000/svg">
<path fill-rule="evenodd" clip-rule="evenodd" d="M0 1.95C0 1.43283 0.158035 0.936838 0.43934 0.571142C0.720644 0.205446 1.10218 0 1.5 0H12.5C12.8978 0 13.2794 0.205446 13.5607 0.571142C13.842 0.936838 14 1.43283 14 1.95V2.6H0V1.95ZM0 3.9H14V11.05C14 11.5672 13.842 12.0632 13.5607 12.4289C13.2794 12.7946 12.8978 13 12.5 13H1.5C1.10218 13 0.720644 12.7946 0.43934 12.4289C0.158035 12.0632 0 11.5672 0 11.05V3.9ZM8 8.45C7.86739 8.45 7.74021 8.51848 7.64645 8.64038C7.55268 8.76228 7.5 8.92761 7.5 9.1C7.5 9.27239 7.55268 9.43772 7.64645 9.55962C7.74021 9.68152 7.86739 9.75 8 9.75H11C11.1326 9.75 11.2598 9.68152 11.3536 9.55962C11.4473 9.43772 11.5 9.27239 11.5 9.1C11.5 8.92761 11.4473 8.76228 11.3536 8.64038C11.2598 8.51848 11.1326 8.45 11 8.45H8Z" fill="#A5A6A8"/>
</svg>
