<svg width="14" height="16" viewBox="0 0 14 16" fill="none" xmlns="http://www.w3.org/2000/svg">
<path d="M12.4444 6H1.55556C0.696446 6 0 6.81403 0 7.81818V14.1818C0 15.186 0.696446 16 1.55556 16H12.4444C13.3036 16 14 15.186 14 14.1818V7.81818C14 6.81403 13.3036 6 12.4444 6Z" fill="black"/>
<path d="M3.00049 7.75055V4.7503C3.00049 3.75566 3.39561 2.80176 4.09893 2.09844C4.80224 1.39512 5.75615 1 6.75079 1C7.74543 1 8.69934 1.39512 9.40266 2.09844C10.106 2.80176 10.5011 3.75566 10.5011 4.7503V7.75055" stroke="black" stroke-width="1.5" stroke-linecap="round" stroke-linejoin="round"/>
</svg>
