<svg width="114" height="114" viewBox="0 0 114 114" fill="none" xmlns="http://www.w3.org/2000/svg">
<path d="M57 114C88.4803 114 114 88.4802 114 57C114 25.5198 88.4803 0 57 0C25.5198 0 0 25.5198 0 57C0 88.4802 25.5198 114 57 114Z" fill="white"/>
<path d="M56.7668 103.911C82.8036 103.911 103.911 82.8036 103.911 56.7668C103.911 30.73 82.8036 9.62305 56.7668 9.62305C30.73 9.62305 9.62305 30.73 9.62305 56.7668C9.62305 82.8036 30.73 103.911 56.7668 103.911Z" fill="black"/>
<g clip-path="url(#clip0_6_7000)">
<path d="M77.6746 37.0215C75.6162 35.9132 73.3204 38.0507 71.9745 39.3174C68.8871 42.3258 66.2745 45.8092 63.3452 48.9759C60.0993 52.4593 57.0909 55.9427 53.7658 59.3471C51.8658 61.2471 49.8074 63.3055 48.5407 65.6805C45.6907 62.9095 43.2365 59.9011 40.0698 57.447C37.7739 55.7053 33.9738 54.4386 34.053 58.6346C34.2113 64.0973 39.0406 69.9557 42.6031 73.6765C44.1073 75.2599 46.0865 76.9224 48.3824 77.0016C51.1533 77.1599 54.0033 73.8348 55.6659 72.014C58.5952 68.8472 60.9703 65.2845 63.6619 62.0388C67.1453 57.7637 70.7078 53.5677 74.1121 49.2134C76.2496 46.5217 82.9789 39.8715 77.6746 37.0215ZM37.5362 58.3179C37.4571 58.3179 37.3779 58.3179 37.2196 58.3969C36.9029 58.3179 36.6654 58.2386 36.3487 58.0802C36.5862 57.9219 36.9821 58.0011 37.5362 58.3179Z" fill="white"/>
</g>
<defs>
<clipPath id="clip0_6_7000">
<rect width="45.6148" height="45.6148" fill="white" transform="translate(34.0518 34.0527)"/>
</clipPath>
</defs>
</svg>
