<svg width="17" height="17" viewBox="0 0 17 17" fill="none" xmlns="http://www.w3.org/2000/svg">
<g clip-path="url(#clip0_3_1785)">
<path d="M14.2141 6.00509C14.5626 6.62842 14.6079 7.43167 14.4266 8.36171C13.9024 11.0576 12.1061 11.9884 9.8125 11.9884H9.45833C9.3226 11.9886 9.19139 12.0372 9.0883 12.1255C8.98521 12.2138 8.91699 12.336 8.89592 12.47L8.86758 12.6259L8.42133 15.4543L8.39867 15.5747C8.37757 15.7087 8.30933 15.8308 8.20622 15.9189C8.10311 16.0071 7.97192 16.0556 7.83625 16.0556H5.46829C5.41888 16.0556 5.37005 16.0449 5.32518 16.0242C5.2803 16.0035 5.24044 15.9734 5.20833 15.9358C5.17623 15.8983 5.15264 15.8542 5.13919 15.8066C5.12574 15.7591 5.12274 15.7092 5.13042 15.6604L5.25437 14.8748H6.32962L7.00254 10.6107H7.98358C11.2972 10.6107 13.4732 9.05021 14.2141 6.00509ZM12.1174 2.39967C12.6572 3.0145 12.8137 3.68175 12.6501 4.72655C12.6366 4.81367 12.6217 4.89655 12.6062 4.98155C12.0855 7.65409 10.4181 8.83913 7.679 8.83913H6.3445C5.89825 8.83913 5.51292 9.13238 5.38542 9.54888L5.3755 9.54746L4.71675 13.7224H2.21067C2.20539 13.7224 2.20019 13.7212 2.19542 13.7189C2.19065 13.7167 2.18643 13.7134 2.18306 13.7094C2.17968 13.7053 2.17723 13.7006 2.17588 13.6955C2.17454 13.6904 2.17432 13.6851 2.17525 13.6799L4.0155 1.9853C4.04031 1.82687 4.12088 1.68252 4.2427 1.57823C4.36451 1.47395 4.51956 1.4166 4.67992 1.4165H8.91292C10.4592 1.4165 11.5451 1.74871 12.1167 2.39967H12.1174Z" fill="black" fill-opacity="0.34"/>
</g>
<defs>
<clipPath id="clip0_3_1785">
<rect width="17" height="17" fill="white"/>
</clipPath>
</defs>
</svg>
