<svg width="251" height="251" viewBox="0 0 251 251" fill="none" xmlns="http://www.w3.org/2000/svg">
<g clip-path="url(#clip0_235_1524)">
<path d="M167.333 177.792V167.333H135.958V135.958H167.333V156.875H188.25V177.792H177.792V198.708H156.875V219.625H135.958V188.25H156.875V177.792H167.333ZM219.625 219.625H177.792V198.708H198.708V177.792H219.625V219.625ZM31.375 31.375H115.042V115.042H31.375V31.375ZM52.2917 52.2917V94.125H94.125V52.2917H52.2917ZM135.958 31.375H219.625V115.042H135.958V31.375ZM156.875 52.2917V94.125H198.708V52.2917H156.875ZM31.375 135.958H115.042V219.625H31.375V135.958ZM52.2917 156.875V198.708H94.125V156.875H52.2917ZM188.25 135.958H219.625V156.875H188.25V135.958ZM62.75 62.75H83.6667V83.6667H62.75V62.75ZM62.75 167.333H83.6667V188.25H62.75V167.333ZM167.333 62.75H188.25V83.6667H167.333V62.75Z" fill="black"/>
</g>
<defs>
<clipPath id="clip0_235_1524">
<rect width="251" height="251" fill="white"/>
</clipPath>
</defs>
</svg>
