<svg xmlns="http://www.w3.org/2000/svg" width="10" height="13" viewBox="0 0 10 13" fill="none">
  <path d="M1.875 13L8.125 13C9.1875 13 10 12.155 10 11.05V7.15L4.625 7.15L6.0625 8.645C6.3125 8.905 6.3125 9.295 6.0625 9.555C5.8125 9.815 5.4375 9.815 5.1875 9.555L2.6875 6.955C2.4375 6.695 2.4375 6.305 2.6875 6.045L5.1875 3.445C5.4375 3.185 5.8125 3.185 6.0625 3.445C6.3125 3.705 6.3125 4.095 6.0625 4.355L4.625 5.85L10 5.85L10 1.95C10 0.845 9.1875 0 8.125 0L1.875 0C0.8125 0 0 0.845 0 1.95L0 11.05C0 12.155 0.8125 13 1.875 13Z" fill="black"/>
</svg>