<svg xmlns="http://www.w3.org/2000/svg" width="33" height="44" viewBox="0 0 33 44" fill="none">
  <path d="M6.1875 44H26.8125C30.3188 44 33 41.14 33 37.4V24.2L15.2625 24.2L20.0062 29.26C20.8312 30.14 20.8312 31.46 20.0062 32.34C19.1812 33.22 17.9438 33.22 17.1188 32.34L8.86875 23.54C8.04375 22.66 8.04375 21.34 8.86875 20.46L17.1188 11.66C17.9438 10.78 19.1812 10.78 20.0062 11.66C20.8312 12.54 20.8312 13.86 20.0062 14.74L15.2625 19.8L33 19.8L33 6.6C33 2.86 30.3188 0 26.8125 0H6.1875C2.68125 0 0 2.86 0 6.6L0 37.4C0 41.14 2.68125 44 6.1875 44Z" fill="white"/>
</svg>