<svg xmlns="http://www.w3.org/2000/svg" width="84" height="84" viewBox="0 0 84 84" fill="none">
  <g clip-path="url(#clip0_6_4555)">
    <path d="M42 7C61.3305 7 77 22.6695 77 42C77 61.3305 61.3305 77 42 77C22.6695 77 7 61.3305 7 42H14C14 57.463 26.537 70 42 70C57.463 70 70 57.463 70 42C70 26.537 57.463 14 42 14C32.375 14 23.884 18.8545 18.8475 26.25H28V33.25H7V12.25H14V21C20.384 12.495 30.5515 7 42 7ZM45.5 24.5V40.5475L56.8505 51.898L51.898 56.8505L38.5 43.4455V24.5H45.5Z" fill="black"/>
  </g>
  <defs>
    <clipPath id="clip0_6_4555">
      <rect width="84" height="84" fill="white"/>
    </clipPath>
  </defs>
</svg>