<svg width="42" height="42" viewBox="0 0 42 42" fill="none" xmlns="http://www.w3.org/2000/svg">
<g clip-path="url(#clip0_6_10890)">
<path d="M39.4978 3.12381C37.6561 2.13212 35.6019 4.04466 34.3977 5.17801C31.6352 7.86973 29.2977 10.9864 26.6767 13.8198C23.7725 16.9366 21.0808 20.0533 18.1057 23.0993C16.4057 24.7993 14.564 26.641 13.4306 28.7661C10.8806 26.2867 8.68471 23.595 5.85132 21.3993C3.79711 19.8409 0.397052 18.7075 0.467886 22.4618C0.609556 27.3495 4.93047 32.5912 8.11803 35.9203C9.46389 37.337 11.2348 38.8246 13.289 38.8954C15.7682 39.0371 18.3182 36.062 19.8057 34.4328C22.4267 31.5994 24.5518 28.4118 26.96 25.5077C30.0768 21.6826 33.2643 17.9282 36.3102 14.0323C38.2228 11.624 44.2437 5.67374 39.4978 3.12381ZM3.5845 22.1784C3.51366 22.1784 3.44283 22.1784 3.30116 22.2492C3.01782 22.1784 2.80531 22.1075 2.52198 21.9658C2.73448 21.8241 3.08865 21.895 3.5845 22.1784Z" fill="white"/>
</g>
<defs>
<clipPath id="clip0_6_10890">
<rect width="40.8132" height="40.8132" fill="white" transform="translate(0.466797 0.46875)"/>
</clipPath>
</defs>
</svg>
