<svg xmlns="http://www.w3.org/2000/svg" width="25" height="16" viewBox="0 0 25 16" fill="none">
  <path d="M1 0C0.447825 0 0 0.4477 0 1V14.7C0 15.2523 0.44805 15.7 1 15.7H24C24.5522 15.7 25 15.2523 25 14.7V1C25 0.447725 24.552 0 24 0H1ZM14.9313 4.6789C15.5397 4.6789 16.0273 4.8133 16.3383 4.93827L16.1258 6.275L15.9852 6.2039C15.6955 6.07892 15.3234 5.95865 14.8102 5.96718C14.1958 5.96718 13.9117 6.24125 13.9117 6.49767C13.9081 6.7866 14.2436 6.97715 14.7922 7.2625C15.6976 7.70275 16.1161 8.23655 16.1102 8.93827C16.098 10.2187 15.0271 11.0461 13.3773 11.0461C12.6735 11.0384 11.9955 10.8893 11.6289 10.7172L11.8492 9.33593L12.0516 9.43437C12.567 9.66467 12.9008 9.75782 13.5289 9.75782C13.98 9.75782 14.4641 9.56895 14.468 9.15547C14.4709 8.88548 14.2656 8.69297 13.6547 8.39062C13.0594 8.09552 12.2702 7.6012 12.2789 6.71485C12.2882 5.51582 13.3805 4.6789 14.9313 4.6789ZM2.21092 4.875H4.74453C5.0857 4.8879 5.36115 4.99775 5.45625 5.36797L6.00235 8.18672V8.18827L6.1664 9.03282L7.70468 4.875H9.36875L6.8953 10.9609L5.2328 10.9625L3.90937 6.05155C4.69683 6.46872 5.36723 6.9514 5.75548 7.61562C5.65538 7.40545 5.52348 7.1682 5.3547 6.93437C5.15815 6.66208 4.73368 6.3105 4.55625 6.16092C3.938 5.63975 3.09838 5.21882 2.1914 4.9961L2.21092 4.875ZM10.0305 4.88202H11.6578L10.6398 10.9586H9.0125L10.0305 4.88202ZM19.2219 4.88202H20.4547L21.7453 10.9586H20.2656C20.2656 10.9586 20.1188 10.2605 20.0711 10.0476C19.8385 10.0476 18.2119 10.0453 18.0289 10.0453C17.967 10.2098 17.693 10.9586 17.693 10.9586H16.0188L18.3867 5.38672C18.5544 4.99077 18.8402 4.88202 19.2219 4.88202ZM19.343 6.5164C19.2629 6.74242 19.1235 7.10742 19.1328 7.0914C19.1328 7.0914 18.6319 8.4274 18.5008 8.77422L19.8172 8.77343C19.7537 8.47213 19.45 7.0352 19.45 7.0352L19.343 6.5164Z" fill="#051244"/>
</svg>